<svg xmlns="http://www.w3.org/2000/svg" xmlns:xlink="http://www.w3.org/1999/xlink" viewBox="0 0 760.68 465.4">
    <defs>

        <symbol id="conffetii" data-name="conffetii" viewBox="0 0 72.14 18.6">
        <rect class="highLight" x="2" y="2" width="68.14" height="14.6" rx="2.83"/>
        <path class="cls-2" d="M69.31,18.6H2.83A2.83,2.83,0,0,1,0,15.77V2.83A2.83,2.83,0,0,1,2.83,0H69.31a2.83,2.83,0,0,1,2.83,2.83V15.77A2.83,2.83,0,0,1,69.31,18.6Zm-62.48-4H65.31a2.83,2.83,0,0,0,2.83-2.83V6.83A2.83,2.83,0,0,0,65.31,4H6.83A2.83,2.83,0,0,0,4,6.83v4.94A2.83,2.83,0,0,0,6.83,14.6Z"/>
        </symbol>
        <symbol id="heart" data-name="heart" viewBox="0 0 40.14 35.62">
        <path class="highLight" d="M29.1,1.87a9.53,9.53,0,0,0-9,6.32A9.53,9.53,0,0,0,1.5,11C1.49,22.42,20,34.09,19.87,34.2c-.12-.11,18.26-11.43,18.76-22.8A9.39,9.39,0,0,0,29.1,1.87Z"/>
        <path class="cls-2" d="M18.33,34.92C4.31,24.93-2,15.33.55,7.55A11,11,0,0,1,19.81,4.34a.5.5,0,0,0,.8,0,11.07,11.07,0,0,1,8.49-4,11.24,11.24,0,0,1,8.1,3.46,10.34,10.34,0,0,1,2.93,7.64c-.31,7-6.79,15.16-18.73,23.47a2.61,2.61,0,0,1-1.41.68A3.16,3.16,0,0,1,18.33,34.92ZM11.26,3A8.16,8.16,0,0,0,3.5,8.21c-2.34,6.22,3.58,14.9,16.08,23.92a.51.51,0,0,0,.6,0c10.68-7.53,16.69-14.9,17-20.79A7.34,7.34,0,0,0,35,5.91a8.18,8.18,0,0,0-10.5-1.13,8.27,8.27,0,0,0-3.07,4.1h0a1.43,1.43,0,0,1-2.71-.05l-.07-.2A8,8,0,0,0,11.26,3Z"/>
        </symbol>
        <style>
        </style>
    </defs>

    <title>dount2</title>
        
        <!-- donutFill -->
        <path class="donutFill" d="M754.83,234.17c-9.6,168.1-167.72,225.73-374.62,225.73S.79,416.68,5.6,234.17C9.64,80.46,173.32,8.44,380.21,8.44S764.15,71.07,754.83,234.17Z" fill="#f9c48c"/>

        <!-- icingFill -->
        <path class="icingFill" d="M383.74,5.05C-32.78,1,5.46,262.84,5.38,264a21.4,21.4,0,1,0,42.68,3.19v0A4.85,4.85,0,0,1,56,263.55l.18.15a26.66,26.66,0,0,1,10.14,21.14c-.24,15.41,3.27,38.8,30,40.62,8.13.55,15.52-5,20.81-13.08a14.89,14.89,0,0,1,17.86-5.53l.32.12a14.72,14.72,0,0,1,9.38,14.13c-.44,16.89-.9,34.63-.95,35.21-.88,11.79,9.52,22.17,23.23,23.2s25.53-7.7,26.42-19.49c0-.13.24-11.49.51-24.65a7.82,7.82,0,0,1,9.64-7.45l.18,0a7.81,7.81,0,0,1,6,7.85c-.26,7.55-.43,12.63-.46,13A28.39,28.39,0,0,0,265.81,353h0a12.15,12.15,0,0,1,13.67-11.34h.11a23.91,23.91,0,0,1,20.85,24.46c-.57,18.21-1,33-1.09,33.63-1.4,18.72,13.26,35.08,32.74,36.54s36.41-12.54,37.81-31.27c0-.19.42-15.68.91-34.57a22.73,22.73,0,0,1,22.61-22.14H394a22.75,22.75,0,0,1,22.85,23.34c-.34,12.87-.63,23.87-.66,24.33-.89,11.79,9.51,22.17,23.22,23.2s25.53-7.7,26.42-19.49c0-.2.58-28.16,1-47.21a8.37,8.37,0,0,1,7.53-8.17q16.33-1.63,32-3.86a8.37,8.37,0,0,1,9.57,8.69v.09c-1.4,18.73,13.26,35.09,32.74,36.54s36.41-12.54,37.81-31.27c0-.13.2-7.53.49-18.29a16.84,16.84,0,0,1,12-15.69c13.35-4,26-8.38,37.92-13.11a16.79,16.79,0,0,1,23,16.31.17.17,0,0,1,0,.08C658.9,335.62,669.3,346,683,347s25.53-7.7,26.42-19.49c0-.24.8-39,1.15-56.35a10.88,10.88,0,0,1,3.84-8.06l.28-.24a10.92,10.92,0,0,1,18,8.94c-.06,1.11-.1,1.77-.11,1.87-.88,11.79,3.6,24.79,8.48,22.1,10.37-5.71,13.26-83.34,13.26-83.34S767.46,8.81,383.74,5.05Z" fill="#fffffb" opacity="0.5"/>

    <g class="cls-5" opacity="0">
        <use width="72.14" height="18.6" transform="translate(228.27 139.35) rotate(-4.52)" xlink:href="#conffetii"/>
        <use width="72.14" height="18.6" transform="translate(164.37 268.88) rotate(-28.23)" xlink:href="#conffetii"/><use width="72.14" height="18.6" transform="translate(195.25 228.08) rotate(-11.99)" xlink:href="#conffetii"/><use width="72.14" height="18.6" transform="translate(256.8 168.9) rotate(25.77)" xlink:href="#conffetii"/><use width="72.14" height="18.6" transform="translate(381.2 58.17) rotate(17.89)" xlink:href="#conffetii"/><use width="72.14" height="18.6" transform="translate(377.9 223.24)" xlink:href="#conffetii"/><use width="72.14" height="18.6" transform="translate(435.93 217.37) rotate(-7.9)" xlink:href="#conffetii"/><use width="72.14" height="18.6" transform="matrix(1.21, -0.48, 0.48, 1.21, 525.01, 180.43)" xlink:href="#conffetii"/><use width="72.14" height="18.6" transform="translate(546.81 132.97) rotate(-11.94)" xlink:href="#conffetii"/><use width="72.14" height="18.6" transform="translate(497.62 122.62) rotate(-35.12)" xlink:href="#conffetii"/><use width="72.14" height="18.6" transform="translate(426.73 74.98) rotate(-7.83)" xlink:href="#conffetii"/><use width="72.14" height="18.6" transform="translate(332.57 71.36) rotate(70.74)" xlink:href="#conffetii"/><use width="72.14" height="18.6" transform="translate(285.72 116.03) rotate(16.27) scale(1.18)" xlink:href="#conffetii"/><use width="72.14" height="18.6" transform="matrix(1.11, 0.99, -0.99, 1.11, 256.46, 19.56)" xlink:href="#conffetii"/><use width="72.14" height="18.6" transform="translate(302.27 23) rotate(15.68) scale(1.02)" xlink:href="#conffetii"/><use width="72.14" height="18.6" transform="translate(384.89 6.14) rotate(11.07)" xlink:href="#conffetii"/><use width="72.14" height="18.6" transform="translate(491.55 48.51) rotate(-3.35)" xlink:href="#conffetii"/><use width="72.14" height="18.6" transform="translate(569.12 102.87) rotate(-32.97)" xlink:href="#conffetii"/><use width="72.14" height="18.6" transform="translate(612.12 133.92) scale(1.24)" xlink:href="#conffetii"/><use width="72.14" height="18.6" transform="translate(663.24 187.58) rotate(-0.21)" xlink:href="#conffetii"/><use width="72.14" height="18.6" transform="translate(633.21 261.92) rotate(0.94)" xlink:href="#conffetii"/><use width="72.14" height="18.6" transform="translate(598.51 220.63)" xlink:href="#conffetii"/><use width="72.14" height="18.6" transform="translate(515.5 254.4) rotate(-24.94)" xlink:href="#conffetii"/><use width="72.14" height="18.6" transform="translate(482.66 293.7) rotate(-18.68)" xlink:href="#conffetii"/><use width="72.14" height="18.6" transform="translate(519.69 313.94) rotate(-0.1)" xlink:href="#conffetii"/><use width="72.14" height="18.6" transform="translate(428.86 343.54) rotate(-37.9)" xlink:href="#conffetii"/><use width="72.14" height="18.6" transform="translate(345.17 341.76) rotate(-49.51)" xlink:href="#conffetii"/><use width="72.14" height="18.6" transform="translate(348.66 290.95) rotate(-12.97)" xlink:href="#conffetii"/><use width="72.14" height="18.6" transform="translate(292.25 258.84)" xlink:href="#conffetii"/><use width="72.14" height="18.6" transform="translate(247.79 314.93)" xlink:href="#conffetii"/><use width="72.14" height="18.6" transform="matrix(0.29, 0.96, -0.96, 0.29, 245.98, 236.49)" xlink:href="#conffetii"/><use width="72.14" height="18.6" transform="translate(122.59 132.52) rotate(56.06) scale(1.78)" xlink:href="#conffetii"/><use width="72.14" height="18.6" transform="translate(96.63 237.63) rotate(39.1)" xlink:href="#conffetii"/><use width="72.14" height="18.6" transform="translate(0.99 245.2) rotate(-7.15)" xlink:href="#conffetii"/><use width="72.14" height="18.6" transform="translate(17.33 204.05) rotate(-2)" xlink:href="#conffetii"/><use width="72.14" height="18.6" transform="translate(21.98 167.39) rotate(-29.41)" xlink:href="#conffetii"/><use width="72.14" height="18.6" transform="translate(73.62 118.39) rotate(-15.82)" xlink:href="#conffetii"/><use width="72.14" height="18.6" transform="translate(107.7 68.33) rotate(10.46)" xlink:href="#conffetii"/><use width="72.14" height="18.6" transform="translate(164.55 64.26)" xlink:href="#conffetii"/><use width="72.14" height="18.6" transform="translate(182.92 113.67) rotate(70.51)" xlink:href="#conffetii"/><use width="72.14" height="18.6" transform="translate(221.07 112.78) rotate(-39.81)" xlink:href="#conffetii"/><use width="72.14" height="18.6" transform="translate(327.45 150.13) rotate(-10.59) scale(1.21)" xlink:href="#conffetii"/>
    </g>

    <g class="cls-6" fill="red" opacity="0">
        <use width="40.14" height="35.62" transform="translate(79.06 119.12) rotate(17.62)" xlink:href="#heart"/>
        <use width="40.14" height="35.62" transform="translate(64.42 203.92) rotate(9.65) scale(1.13)" xlink:href="#heart"/><use width="40.14" height="35.62" transform="translate(117.48 237.91)" xlink:href="#heart"/><use width="40.14" height="35.62" transform="translate(166.06 260.52) rotate(1.49) scale(1.28)" xlink:href="#heart"/><use width="40.14" height="35.62" transform="matrix(1, 0.01, -0.01, 1, 248.3, 289.43)" xlink:href="#heart"/><use width="40.14" height="35.62" transform="translate(297.87 260.2) rotate(-25.45) scale(1.28)" xlink:href="#heart"/><use width="40.14" height="35.62" transform="translate(340.31 303.25) rotate(-16.3)" xlink:href="#heart"/><use width="40.14" height="35.62" transform="translate(352.15 253.05) rotate(-25.8)" xlink:href="#heart"/><use width="40.14" height="35.62" transform="matrix(1, -0.05, 0.05, 1, 422.7, 197.15)" xlink:href="#heart"/><use width="40.14" height="35.62" transform="translate(443.42 301.91)" xlink:href="#heart"/><use width="40.14" height="35.62" transform="translate(519.49 320.16)" xlink:href="#heart"/><use width="40.14" height="35.62" transform="translate(585.82 280.71) rotate(0.71)" xlink:href="#heart"/><use width="40.14" height="35.62" transform="translate(657.65 237.12) rotate(-25.27)" xlink:href="#heart"/><use width="40.14" height="35.62" transform="translate(704.14 163.78) rotate(41) scale(1.07)" xlink:href="#heart"/><use width="40.14" height="35.62" transform="translate(674.64 120.89) rotate(-1.29) scale(1.32)" xlink:href="#heart"/><use width="40.14" height="35.62" transform="matrix(0.91, -0.58, 0.58, 0.91, 641.39, 114.56)" xlink:href="#heart"/><use width="40.14" height="35.62" transform="translate(606.41 78.7) rotate(-6.29)" xlink:href="#heart"/><use width="40.14" height="35.62" transform="translate(612.42 186.66) rotate(-66.08)" xlink:href="#heart"/><use width="40.14" height="35.62" transform="translate(607.01 201.55) rotate(-2.43)" xlink:href="#heart"/><use width="40.14" height="35.62" transform="translate(546 70.89)" xlink:href="#heart"/><use width="40.14" height="35.62" transform="translate(571.58 89.75) rotate(-0.67)" xlink:href="#heart"/><use width="40.14" height="35.62" transform="translate(422.14 8.21)" xlink:href="#heart"/><use width="40.14" height="35.62" transform="translate(487.03 30.96)" xlink:href="#heart"/><use width="40.14" height="35.62" transform="translate(462.66 78.01) scale(1.14)" xlink:href="#heart"/><use width="40.14" height="35.62" transform="translate(413.74 65.91) scale(1.26)" xlink:href="#heart"/><use width="40.14" height="35.62" transform="translate(370.55 42.72) rotate(0.26)" xlink:href="#heart"/><use width="40.14" height="35.62" transform="translate(382.26 109.23)" xlink:href="#heart"/><use width="40.14" height="35.62" transform="matrix(0.54, 0.84, -0.84, 0.54, 331.37, 45.44)" xlink:href="#heart"/><use width="40.14" height="35.62" transform="translate(331.8 3.38) rotate(27.71)" xlink:href="#heart"/><use width="40.14" height="35.62" transform="translate(271.42 18.81) rotate(11.27)" xlink:href="#heart"/><use width="40.14" height="35.62" transform="matrix(1.09, 0.1, -0.1, 1.09, 220.27, 41.54)" xlink:href="#heart"/><use width="40.14" height="35.62" transform="matrix(1.21, 0.28, -0.28, 1.21, 238.72, 71.14)" xlink:href="#heart"/><use width="40.14" height="35.62" transform="translate(150.51 68.83)" xlink:href="#heart"/><use width="40.14" height="35.62" transform="translate(128.38 69.53)" xlink:href="#heart"/><use width="40.14" height="35.62" transform="translate(162.75 125.89)" xlink:href="#heart"/><use width="40.14" height="35.62" transform="translate(141.81 158.54) rotate(8.14)" xlink:href="#heart"/><use width="40.14" height="35.62" transform="translate(165.16 199.28) rotate(-8.61)" xlink:href="#heart"/><use width="40.14" height="35.62" transform="translate(249.02 200.51) rotate(41.08)" xlink:href="#heart"/><use width="40.14" height="35.62" transform="translate(376.06 198.14) rotate(-8.28)" xlink:href="#heart"/><use width="40.14" height="35.62" transform="translate(489.9 207.96) rotate(1.41)" xlink:href="#heart"/><use width="40.14" height="35.62" transform="translate(537.59 223.01) rotate(-20.26)" xlink:href="#heart"/><use width="40.14" height="35.62" transform="translate(415.58 268.76) rotate(-7.75) scale(1.04)" xlink:href="#heart"/><use width="40.14" height="35.62" transform="translate(618.69 246.05) rotate(-19.78)" xlink:href="#heart"/><use width="40.14" height="35.62" transform="translate(638.88 286.66) rotate(-9.06)" xlink:href="#heart"/><use width="40.14" height="35.62" transform="translate(528.38 262.36)" xlink:href="#heart"/><use width="40.14" height="35.62" transform="matrix(0.97, 0.25, -0.25, 0.97, 271.06, 97.54)" xlink:href="#heart"/><use width="40.14" height="35.62" transform="translate(341.57 135.02) rotate(17.12)" xlink:href="#heart"/><use width="40.14" height="35.62" transform="translate(455.41 271.82) rotate(-44.29) scale(1.3)" xlink:href="#heart"/><use width="40.14" height="35.62" transform="translate(505.65 148.82) rotate(0.07)" xlink:href="#heart"/><use width="40.14" height="35.62" transform="translate(540.07 174.03) rotate(-47.54)" xlink:href="#heart"/><use width="40.14" height="35.62" transform="translate(715.9 212.76) rotate(12.54) scale(1.09)" xlink:href="#heart"/><use width="40.14" height="35.62" transform="translate(37.49 169.09) rotate(0.14)" xlink:href="#heart"/><use width="40.14" height="35.62" transform="translate(23.29 217.81)" xlink:href="#heart"/>
    </g>

        <!-- icingOutline -->
        <path class="cls-2" d="M334.89,441.44q-1.58,0-3.18-.12c-22.19-1.66-38.95-20.46-37.35-41.91,0-.47.21-5.51,1.08-33.41A18.83,18.83,0,0,0,279,346.66h-.12a7.15,7.15,0,0,0-8,6.54l0,.21a33.39,33.39,0,0,1-66.59-5c0-.44.18-4.75.45-12.78a2.82,2.82,0,0,0-2.15-2.82l-.17,0a2.8,2.8,0,0,0-2.39.51,2.77,2.77,0,0,0-1.09,2.18c-.51,24.64-.51,24.71-.53,24.93-1.09,14.51-15.32,25.33-31.77,24.1a31.91,31.91,0,0,1-20.25-9,24.78,24.78,0,0,1-7.59-19.54c0-.34.15-4.59.93-35a9.73,9.73,0,0,0-6.18-9.34l-.32-.12a9.94,9.94,0,0,0-11.88,3.61c-6.81,10.37-16,16-25.33,15.33-22.77-1.55-35.08-17.78-34.64-45.69A21.53,21.53,0,0,0,53,267.62,26.4,26.4,0,0,1,6.71,282.78c-4.5-5.23-4.59-13.77-4.2-20.64a204.58,204.58,0,0,1,52.33-159c28.53-31.54,67.48-56.24,115.75-73.4C228.23,9.2,300-.78,383.79.05c85.62.84,158.46,11.77,216.49,32.49,47.19,16.85,84.89,40.22,112,69.47,49.61,53.44,47.19,107.53,47,110.7-.05,1.26-2.64,20.17-4.6,39.64-3.78,37.67-6.69,45.32-11.25,47.83a7.57,7.57,0,0,1-8-.3c-6.14-3.95-8.66-16.62-7.92-26.55,0-.13,0-.75.1-1.78a5.93,5.93,0,0,0-9.75-4.87l-.29.26a5.87,5.87,0,0,0-2.08,4.36c-1.14,56.19-1.15,56.42-1.17,56.61A24.77,24.77,0,0,1,704,346.11a31.9,31.9,0,0,1-21.36,5.9c-16.41-1.22-28.88-14-27.85-28.48a11.78,11.78,0,0,0-16.12-11.44c-12,4.77-24.93,9.23-38.33,13.25a11.79,11.79,0,0,0-8.41,11c-.48,18.24-.49,18.35-.5,18.54-1.61,21.44-21,37.54-43.17,35.88a40.86,40.86,0,0,1-27.56-13.45A38.07,38.07,0,0,1,510.9,349a3.38,3.38,0,0,0-3.87-3.53c-10.51,1.49-21.35,2.8-32.21,3.88a3.38,3.38,0,0,0-3,3.3c-1,47.14-1,47.26-1,47.5a24.77,24.77,0,0,1-10.41,18.18,31.9,31.9,0,0,1-21.36,5.9c-16.44-1.22-28.93-14-27.84-28.55,0-.27.11-3.32.65-24.09A17.75,17.75,0,0,0,394,353.34h-.57a17.65,17.65,0,0,0-17.64,17.27c-.9,34.46-.91,34.61-.93,34.82A38.08,38.08,0,0,1,361,432.12,40.74,40.74,0,0,1,334.89,441.44ZM278,336.59a17.41,17.41,0,0,1,2.16.14l.11,0a28.78,28.78,0,0,1,25.21,29.57c-1,32.84-1.08,33.54-1.11,33.84-1.19,15.95,11.43,29.94,28.13,31.18a30.84,30.84,0,0,0,22.13-6.93,28.14,28.14,0,0,0,10.31-19.64c0-1.14.35-12.71.91-34.41a27.61,27.61,0,0,1,27.59-27h.72a27.74,27.74,0,0,1,27.72,28.47c-.62,23.83-.66,24.33-.68,24.57-.67,9,7.68,17,18.61,17.84a21.9,21.9,0,0,0,14.68-4,15,15,0,0,0,6.37-10.8c.06-2.14.72-34.66,1-47a13.39,13.39,0,0,1,12-13.05c10.72-1.07,21.41-2.36,31.79-3.83a13.37,13.37,0,0,1,15.27,13.89v.21a28.17,28.17,0,0,0,7.27,21A30.89,30.89,0,0,0,549,380.82c16.66,1.24,31.21-10.67,32.45-26.57,0-.6.12-4.35.48-18.15a21.77,21.77,0,0,1,15.53-20.33c13.13-3.94,25.76-8.31,37.52-13A21.79,21.79,0,0,1,664.78,324v.18c-.67,9.07,7.68,17.07,18.61,17.89a22,22,0,0,0,14.68-4,15,15,0,0,0,6.37-10.8c.06-2.2.75-36.14,1.15-56.18a15.9,15.9,0,0,1,5.59-11.76l.27-.24a15.93,15.93,0,0,1,26.24,13c-.06,1.17-.1,1.86-.11,2a35.82,35.82,0,0,0,2.14,15.31c1.64-3.75,4.53-13.67,7-39.34,1.87-19.21,2.57-37.59,2.58-37.78v-.13c0-.13.74-13.33-4.39-32.62-4.72-17.76-15.52-44.49-40.19-71-26.08-28-62.46-50.44-108.11-66.7-56.93-20.28-128.58-31-212.95-31.81C301,9.24,230.47,19,173.94,39.12c-46.7,16.6-84.27,40.39-111.68,70.69C3.84,174.38,8.73,248.72,10.3,263a6.45,6.45,0,0,1,.06,1.37,16.4,16.4,0,0,0,32.71,2.51,9.84,9.84,0,0,1,16-7.19l.18.14a31.48,31.48,0,0,1,12,25.12c-.13,8.36-.53,33.79,25.32,35.55,5.56.37,11.52-3.57,16.29-10.84a20,20,0,0,1,23.85-7.45l.3.12a19.76,19.76,0,0,1,12.59,18.93c-.9,34.59-.94,35.17-1,35.45a15,15,0,0,0,4.69,11.73,21.84,21.84,0,0,0,13.92,6.11c10.88.81,20.31-5.8,21.05-14.77,0-1.52.38-18.13.51-24.49a12.82,12.82,0,0,1,15.8-12.2l.18,0A12.84,12.84,0,0,1,214.64,336c-.42,12.62-.45,12.95-.46,13.19a23.39,23.39,0,0,0,46.64,3.54A17.15,17.15,0,0,1,278,336.59Z" fill="1a1a1a"/>

         <!-- donutOutline -->
        <path class="donutOutline" d="M375.69,185.63c-37.16,0-74.45-6.41-102.31-17.58-30.52-12.24-48-29.19-51-49.29a5.5,5.5,0,0,1,5.46-6.27h0a5.46,5.46,0,0,1,5.43,4.61c1.86,12.11,11.68,27.71,44.17,40.74,26.61,10.67,62.41,16.79,98.22,16.79,69,0,140.34-20.87,146-56.08a5.47,5.47,0,0,1,5.42-4.56h0a5.49,5.49,0,0,1,5.46,6.3c-3.12,20-21.25,36.67-52.89,48.55C451.32,179.51,413.4,185.63,375.69,185.63Zm268.4,229.3c72.49-38.56,111.59-99.27,116.23-180.44l-5.49-.32,5.49.32c3-52.43-12.7-97.23-46.65-133.18C682.18,68,635.34,42.58,574.44,25.86,519.07,10.65,453.73,2.94,380.21,2.94c-107.91,0-199.91,19.34-266,55.91C78.9,78.36,51.32,102.63,32.18,131,11.9,161,1.11,195.7.1,234c-1.56,59.25,15.49,107.61,50.69,143.74,31.54,32.39,76.73,55.14,138.12,69.55,51.86,12.17,114.44,18.08,191.3,18.08C492.34,465.4,581.12,448.42,644.09,414.93Zm61.59-306.06c31.79,33.65,46.48,75.71,43.66,125-2.27,39.69-13.23,74.49-32.57,103.44-18.24,27.29-44.43,50.14-77.85,67.92-61.35,32.64-148.4,49.18-258.71,49.18-76,0-137.76-5.82-188.78-17.79-59.3-13.92-102.72-35.68-132.76-66.52a160.53,160.53,0,0,1-36.16-57.62c-8.34-22.94-12.18-49.24-11.42-78.15,1-36.2,11.12-68.9,30.21-97.19,18.15-26.89,44.46-50,78.2-68.65C184,32.8,274.15,13.94,380.21,13.94,532.28,13.94,647.86,47.65,705.68,108.87Z" fill="1a1a1a"/>
        
        <!-- highLight -->
        <g fill="#fffffb">
        <ellipse class="highLight" cx="554.99" cy="65.82" rx="17.08" ry="64.53" transform="translate(379.27 596.36) rotate(-78.44)"/>
        <ellipse class="highLight" cx="603.3" cy="110.8" rx="20.83" ry="10.42" />
        <ellipse class="highLight" cx="178.04" cy="82.18" rx="20.83" ry="10.42" />
        <ellipse class="highLight" cx="130.62" cy="114.42" rx="20.83" ry="10.42" />
        <ellipse class="highLight" cx="187.52" cy="146.67" rx="20.83" ry="10.42" />
        </g>
</svg>